HIERARCHY
ROOT cup1
{
	OFFSET 0.000000 0.000000 0.000000
	CHANNELS 6 Xposition Yposition Zposition Yrotation Xrotation Zrotation
	End Site
	{
		OFFSET 0.000000 0.000000 0.000000
	}
}
MOTION
Frames: 185
Frame Time: 0.008333334
1.742064 4.265692 2.917150 -178.785200 14.570600 -16.423400 
1.745399 4.338811 2.953909 178.888300 14.668680 -17.515380 
1.753130 4.411090 2.994925 177.031700 14.359510 -18.907650 
1.762976 4.484993 3.037885 175.178800 13.899740 -20.171080 
1.770774 4.558202 3.083808 173.006800 13.038770 -20.652710 
1.780162 4.628961 3.129428 170.952700 12.336450 -21.748110 
1.787718 4.698246 3.174633 168.807200 11.956950 -22.831120 
1.794588 4.765116 3.217166 166.595200 11.666530 -24.035710 
1.799751 4.831007 3.256425 164.365600 11.575590 -25.279110 
1.803732 4.894780 3.293545 162.131000 11.361630 -26.234160 
1.808098 4.955670 3.329344 159.948200 11.540770 -27.702300 
1.811797 5.014761 3.363908 157.953900 11.380600 -28.780980 
1.815741 5.071856 3.398151 156.216600 11.041820 -29.483250 
1.819602 5.125278 3.432067 154.645200 10.368120 -29.820740 
1.824677 5.176181 3.465884 153.431000 9.592576 -30.100010 
1.830326 5.224453 3.499145 152.418300 8.815763 -30.149440 
1.836957 5.270662 3.530624 151.405800 8.096977 -30.192660 
1.841662 5.313209 3.559865 149.879600 7.918518 -30.181000 
1.850135 5.351895 3.587381 149.273400 6.979112 -29.976440 
1.856616 5.388123 3.613395 148.370100 6.350059 -29.484100 
1.863940 5.423284 3.638546 147.475200 5.801532 -29.142670 
1.869797 5.455234 3.661554 146.589000 5.330590 -28.785950 
1.875606 5.485080 3.682183 145.760800 4.888253 -28.515990 
1.880315 5.512710 3.699754 144.616700 4.812713 -28.414700 
1.883452 5.540428 3.715170 143.720900 4.796900 -28.243350 
1.887342 5.565452 3.729275 143.135800 4.760615 -28.332890 
1.889129 5.589934 3.741211 142.312700 4.791563 -28.451200 
1.889933 5.612573 3.751714 141.437900 4.827706 -28.669740 
1.891272 5.633621 3.763438 140.925400 4.370919 -28.603210 
1.891123 5.652717 3.774853 140.113300 4.111990 -28.426610 
1.892607 5.669641 3.786957 139.409100 3.812583 -28.373110 
1.894336 5.684867 3.798959 138.732900 3.529860 -28.227810 
1.897008 5.698192 3.810263 138.240700 3.217242 -27.981960 
1.899871 5.710594 3.820458 137.697800 3.121289 -27.543950 
1.904343 5.720882 3.830258 137.535200 2.925216 -27.214510 
1.907187 5.731036 3.838473 137.133400 2.761040 -26.655700 
1.910982 5.739861 3.846073 136.839100 2.646787 -26.113340 
1.914759 5.746721 3.853388 136.673400 2.136721 -25.411350 
1.917947 5.753009 3.858446 136.406100 1.925800 -24.658910 
1.921770 5.757704 3.863204 136.420900 1.643146 -24.173190 
1.925066 5.762974 3.865793 136.238300 1.565684 -23.494510 
1.928122 5.767579 3.868281 136.183800 1.421919 -23.158290 
1.930610 5.772045 3.870305 136.101400 1.306780 -22.701630 
1.933271 5.777531 3.871916 135.947100 1.278640 -22.228640 
1.935959 5.782934 3.872526 135.825300 1.013969 -21.753360 
1.938283 5.788505 3.873107 135.723300 0.987406 -21.294920 
1.940940 5.794791 3.872743 135.555000 0.982861 -20.616150 
1.942471 5.803168 3.872092 135.432400 1.286464 -20.439910 
1.942257 5.811221 3.870032 135.333500 1.534146 -20.404110 
1.940141 5.819982 3.867079 135.379100 1.453234 -20.609620 
1.935629 5.829128 3.863204 135.255400 1.171271 -20.672670 
1.930930 5.837872 3.861341 135.296500 0.686571 -21.110780 
1.925384 5.847130 3.860975 135.189200 0.149061 -21.653380 
1.918518 5.856900 3.861162 135.000000 -0.470886 -21.702580 
1.912474 5.865339 3.864155 134.860600 -1.203918 -22.131380 
1.906073 5.874028 3.869133 134.696300 -2.174011 -22.323460 
1.899508 5.883072 3.875525 134.636100 -3.474091 -22.409090 
1.892748 5.893307 3.881946 134.304400 -4.301392 -22.581910 
1.889104 5.903482 3.888648 134.214300 -5.134003 -22.601960 
1.886263 5.914545 3.894760 134.186400 -5.513519 -22.650880 
1.885097 5.925456 3.898187 133.957300 -5.710571 -22.438750 
1.884749 5.935751 3.901606 133.854200 -5.648285 -22.327030 
1.885048 5.945651 3.905307 133.849700 -5.720245 -21.930080 
1.885830 5.953985 3.911643 133.729300 -5.793335 -21.545380 
1.886855 5.960370 3.920522 133.229200 -5.658569 -20.953310 
1.889954 5.965108 3.929615 132.692600 -5.578888 -20.259280 
1.895065 5.968613 3.938701 132.228600 -5.085571 -19.873570 
1.900550 5.972678 3.945182 131.679100 -4.432556 -19.098940 
1.905784 5.978636 3.949895 131.447300 -3.820557 -18.623540 
1.907460 5.989214 3.950067 131.313200 -3.394073 -18.163760 
1.903841 6.000709 3.946344 131.130300 -3.035889 -18.529360 
1.899433 6.012519 3.942875 131.133100 -3.021332 -18.776580 
1.895011 6.022745 3.942060 131.032600 -3.001068 -19.054020 
1.889564 6.033317 3.940725 130.830200 -3.017151 -19.315460 
1.884049 6.042430 3.937979 130.714100 -3.453888 -19.604980 
1.878279 6.052084 3.933529 130.796600 -4.099701 -19.854520 
1.873158 6.061355 3.927404 130.577300 -4.740784 -20.340270 
1.872171 6.071198 3.920977 129.871100 -5.401184 -20.824740 
1.876518 6.081544 3.913403 128.412700 -6.100403 -20.791810 
1.886156 6.092212 3.903851 126.263800 -6.915771 -20.563110 
1.897802 6.102346 3.892629 123.420100 -7.466003 -20.475160 
1.910097 6.112739 3.879708 120.229400 -7.717102 -20.613160 
1.921984 6.122353 3.865989 116.732000 -8.551788 -20.363400 
1.933495 6.130994 3.853944 113.287700 -9.746918 -19.930910 
1.942352 6.138363 3.841809 109.771300 -10.862950 -19.596980 
1.948294 6.144557 3.832143 106.365600 -12.121860 -19.004210 
1.953205 6.149999 3.822451 103.319200 -13.151120 -18.899540 
1.957385 6.154416 3.812151 100.700300 -14.295070 -18.520420 
1.962745 6.158957 3.800429 98.186950 -15.099520 -18.424840 
1.969330 6.162710 3.787328 95.639500 -16.032200 -18.202790 
1.974104 6.166297 3.775073 92.597090 -17.198120 -17.840610 
1.976752 6.170139 3.763539 88.673920 -18.217070 -17.190830 
1.975932 6.173403 3.756091 83.778660 -19.510100 -16.043490 
1.971852 6.177770 3.752223 77.884790 -20.980010 -14.296880 
1.965105 6.180584 3.752566 71.610230 -22.641450 -11.683560 
1.956591 6.183897 3.755810 65.176510 -24.099300 -8.674957 
1.947853 6.186299 3.759389 59.451920 -25.063290 -5.679108 
1.940976 6.189445 3.762984 54.346910 -25.784330 -2.896881 
1.934810 6.192489 3.765685 50.175210 -26.354640 -0.514099 
1.929531 6.196063 3.766829 46.660550 -26.555760 1.182639 
1.926126 6.198349 3.766926 43.610060 -26.945100 3.111459 
1.920068 6.198031 3.765077 40.710810 -26.726900 4.259112 
1.913249 6.197816 3.760952 38.002240 -27.198940 5.562106 
1.904551 6.195290 3.755814 35.191360 -27.666840 7.161936 
1.893672 6.191436 3.751172 31.869430 -28.062470 8.848812 
1.882662 6.188350 3.746724 28.751580 -28.541080 10.745480 
1.872449 6.186421 3.745007 25.880920 -28.405490 12.500350 
1.862772 6.184226 3.746095 22.802020 -28.225280 14.686910 
1.851909 6.183914 3.751494 20.156090 -27.687840 16.482450 
1.838077 6.184063 3.759119 17.786150 -27.109920 18.225530 
1.820868 6.184793 3.768487 15.332550 -26.217470 19.538350 
1.815947 6.187534 3.774084 14.388740 -25.826080 20.259630 
1.819632 6.194239 3.778443 14.140480 -25.175290 19.545710 
1.827209 6.199934 3.781673 13.470680 -25.224000 19.680740 
1.832115 6.204165 3.786928 12.875910 -24.506130 19.454770 
1.834155 6.206504 3.793586 12.684680 -23.735350 19.378010 
1.834886 6.209931 3.803424 12.652990 -23.126710 19.306300 
1.835745 6.212848 3.814122 12.677620 -21.964290 18.879890 
1.836315 6.218421 3.827944 13.025530 -20.216130 17.683170 
1.839024 6.222694 3.843442 12.972960 -19.279630 17.612430 
1.841554 6.227533 3.858172 13.104640 -17.759550 16.996640 
1.843999 6.232081 3.873597 12.904740 -16.921600 16.572200 
1.847675 6.235088 3.886020 12.487000 -16.215180 16.790380 
1.847630 6.240151 3.898309 12.237960 -15.024690 16.028040 
1.847096 6.245166 3.909335 11.872540 -14.109040 15.681360 
1.846040 6.249502 3.918835 11.483330 -13.263820 15.485340 
1.843879 6.254047 3.925802 10.922490 -12.923580 15.380390 
1.840570 6.258543 3.931153 10.225630 -12.888790 15.329420 
1.835957 6.263415 3.935312 9.486667 -12.749360 15.004700 
1.833290 6.267806 3.939554 8.582545 -12.879330 15.300720 
1.828109 6.273299 3.943355 7.765789 -12.960390 15.133090 
1.823633 6.278958 3.945207 6.873923 -13.112370 15.218370 
1.818508 6.285046 3.946472 6.029441 -13.139280 15.258190 
1.814049 6.290684 3.946929 4.998454 -13.435490 15.510070 
1.809089 6.297693 3.946074 3.999575 -13.566560 15.361790 
1.805177 6.303816 3.945883 3.019377 -13.723050 15.449760 
1.800949 6.309974 3.945441 1.901779 -13.832490 15.129200 
1.797429 6.315901 3.944396 0.656493 -13.943570 14.836500 
1.795329 6.321204 3.943836 -0.522156 -14.236050 14.797430 
1.795429 6.326506 3.945112 -1.771088 -14.354800 14.765580 
1.794956 6.331993 3.949409 -2.468109 -14.055480 14.072980 
1.796973 6.335749 3.955423 -3.287292 -13.417600 13.652690 
1.799205 6.337181 3.963559 -3.994324 -12.892520 13.528930 
1.801367 6.338638 3.972677 -4.613129 -12.183320 13.210640 
1.805359 6.339015 3.981325 -5.094879 -11.605440 13.089840 
1.809805 6.340758 3.990027 -5.653564 -11.126130 12.796980 
1.813276 6.341850 3.997293 -6.292053 -10.784240 12.536310 
1.816200 6.345106 4.006166 -6.821167 -10.315950 11.957220 
1.819229 6.348713 4.013940 -7.366180 -10.146790 11.567840 
1.821857 6.353017 4.020663 -8.040436 -9.870087 11.140080 
1.824579 6.357875 4.026977 -8.834137 -9.786865 10.695830 
1.825789 6.364012 4.032113 -9.440216 -9.723938 10.274620 
1.826946 6.369074 4.036672 -10.140140 -10.063930 10.425110 
1.826138 6.375632 4.039331 -10.761140 -10.236820 10.240160 
1.824352 6.380630 4.040970 -11.402890 -10.247800 10.420140 
1.822055 6.384908 4.043282 -11.851410 -10.391050 10.957390 
1.821259 6.387908 4.046348 -12.269170 -10.508420 11.709880 
1.819613 6.389585 4.049537 -12.604250 -10.345610 12.054470 
1.819090 6.390259 4.053360 -12.839480 -10.301330 12.570110 
1.820254 6.390431 4.056010 -12.969330 -10.174380 12.905510 
1.822894 6.393699 4.056885 -13.053380 -9.774963 12.720670 
1.824792 6.396432 4.055216 -13.167140 -9.423981 12.830810 
1.826089 6.398914 4.053229 -13.268190 -9.357452 13.073150 
1.828239 6.402132 4.049745 -13.526860 -9.283997 13.121300 
1.832247 6.405374 4.046469 -13.928440 -9.061432 13.219740 
1.834919 6.408842 4.042983 -15.221500 -8.634613 13.674550 
1.835985 6.410807 4.037424 -17.392090 -7.688049 14.256580 
1.834590 6.412103 4.031112 -20.275360 -6.691803 15.114310 
1.831727 6.413259 4.023385 -23.352910 -5.814758 16.305830 
1.826219 6.412395 4.015339 -26.608670 -4.659332 17.642600 
1.820223 6.411843 4.007403 -29.759490 -3.128357 18.511880 
1.815849 6.411242 4.000049 -32.601470 -1.972656 19.356490 
1.814797 6.410556 3.991936 -35.608370 -0.562897 19.848660 
1.813378 6.411338 3.983557 -38.498810 0.287642 20.436110 
1.814941 6.412248 3.974406 -41.086210 1.028576 20.939050 
1.818800 6.413994 3.966192 -43.419920 1.585572 21.333410 
1.824325 6.415423 3.957887 -45.671970 2.427373 21.525970 
1.829379 6.417112 3.949151 -48.142300 3.219641 21.656310 
1.832702 6.419218 3.940877 -51.008670 4.116940 22.028650 
1.834618 6.420038 3.931738 -54.525700 5.423277 22.229450 
1.835218 6.419360 3.920736 -58.790040 7.253883 22.227730 
1.836102 6.418057 3.909371 -63.507390 9.175905 22.109110 
1.836826 6.416340 3.898280 -68.419280 11.075980 22.080690 
1.837561 6.414035 3.887876 -73.287410 13.083590 21.523980 
1.838435 6.412740 3.879884 -77.856080 14.840010 21.212140 
